{
    "asset" : {
        "generator" : "Khronos glTF Blender I/O v1.7.33",
        "version" : "2.0"
    },
    "scene" : 0,
    "scenes" : [
        {
            "name" : "Scene",
            "nodes" : [
                0
            ]
        }
    ],
    "nodes" : [
        {
            "mesh" : 0,
            "name" : "Seed",
            "scale" : [
                0.2255302369594574,
                0.2255302369594574,
                0.2255302369594574
            ]
        }
    ],
    "materials" : [
        {
            "doubleSided" : true,
            "name" : "color-palette",
            "pbrMetallicRoughness" : {
                "baseColorTexture" : {
                    "index" : 0
                },
                "metallicFactor" : 0,
                "roughnessFactor" : 0.5
            }
        }
    ],
    "meshes" : [
        {
            "name" : "Sphere",
            "primitives" : [
                {
                    "attributes" : {
                        "POSITION" : 0,
                        "NORMAL" : 1,
                        "TEXCOORD_0" : 2
                    },
                    "indices" : 3,
                    "material" : 0
                }
            ]
        }
    ],
    "textures" : [
        {
            "sampler" : 0,
            "source" : 0
        }
    ],
    "images" : [
        {
            "bufferView" : 4,
            "mimeType" : "image/png",
            "name" : "LowPoly_paletta"
        }
    ],
    "accessors" : [
        {
            "bufferView" : 0,
            "componentType" : 5126,
            "count" : 1476,
            "max" : [
                1,
                3.5676960945129395,
                0.9807854890823364
            ],
            "min" : [
                -0.9999999403953552,
                0.028290271759033203,
                -1.2924470901489258
            ],
            "type" : "VEC3"
        },
        {
            "bufferView" : 1,
            "componentType" : 5126,
            "count" : 1476,
            "type" : "VEC3"
        },
        {
            "bufferView" : 2,
            "componentType" : 5126,
            "count" : 1476,
            "type" : "VEC2"
        },
        {
            "bufferView" : 3,
            "componentType" : 5123,
            "count" : 5454,
            "type" : "SCALAR"
        }
    ],
    "bufferViews" : [
        {
            "buffer" : 0,
            "byteLength" : 17712,
            "byteOffset" : 0
        },
        {
            "buffer" : 0,
            "byteLength" : 17712,
            "byteOffset" : 17712
        },
        {
            "buffer" : 0,
            "byteLength" : 11808,
            "byteOffset" : 35424
        },
        {
            "buffer" : 0,
            "byteLength" : 10908,
            "byteOffset" : 47232
        },
        {
            "buffer" : 0,
            "byteLength" : 499,
            "byteOffset" : 58140
        }
    ],
    "samplers" : [
        {
            "magFilter" : 9729,
            "minFilter" : 9987
        }
    ],
    "buffers" : [
        {
            "byteLength" : 58640,
            "uri" : "data:application/octet-stream;base64,"
        }
    ]
}
