{
    "asset" : {
        "generator" : "Khronos glTF Blender I/O v1.7.33",
        "version" : "2.0"
    },
    "scene" : 0,
    "scenes" : [
        {
            "name" : "Scene",
            "nodes" : [
                0
            ]
        }
    ],
    "nodes" : [
        {
            "mesh" : 0,
            "name" : "Tree-Cactus-no1"
        }
    ],
    "materials" : [
        {
            "doubleSided" : true,
            "name" : "color-palette",
            "pbrMetallicRoughness" : {
                "baseColorTexture" : {
                    "index" : 0
                },
                "metallicFactor" : 0,
                "roughnessFactor" : 0.5
            }
        }
    ],
    "meshes" : [
        {
            "name" : "Cube.005",
            "primitives" : [
                {
                    "attributes" : {
                        "POSITION" : 0,
                        "NORMAL" : 1,
                        "TEXCOORD_0" : 2
                    },
                    "indices" : 3,
                    "material" : 0
                }
            ]
        }
    ],
    "textures" : [
        {
            "sampler" : 0,
            "source" : 0
        }
    ],
    "images" : [
        {
            "bufferView" : 4,
            "mimeType" : "image/png",
            "name" : "LowPoly_paletta"
        }
    ],
    "accessors" : [
        {
            "bufferView" : 0,
            "componentType" : 5126,
            "count" : 689,
            "max" : [
                0.2824961543083191,
                1.0286386013031006,
                0.28136226534843445
            ],
            "min" : [
                -0.26718881726264954,
                -0.01072701532393694,
                -0.2815515100955963
            ],
            "type" : "VEC3"
        },
        {
            "bufferView" : 1,
            "componentType" : 5126,
            "count" : 689,
            "type" : "VEC3"
        },
        {
            "bufferView" : 2,
            "componentType" : 5126,
            "count" : 689,
            "type" : "VEC2"
        },
        {
            "bufferView" : 3,
            "componentType" : 5123,
            "count" : 2622,
            "type" : "SCALAR"
        }
    ],
    "bufferViews" : [
        {
            "buffer" : 0,
            "byteLength" : 8268,
            "byteOffset" : 0
        },
        {
            "buffer" : 0,
            "byteLength" : 8268,
            "byteOffset" : 8268
        },
        {
            "buffer" : 0,
            "byteLength" : 5512,
            "byteOffset" : 16536
        },
        {
            "buffer" : 0,
            "byteLength" : 5244,
            "byteOffset" : 22048
        },
        {
            "buffer" : 0,
            "byteLength" : 499,
            "byteOffset" : 27292
        }
    ],
    "samplers" : [
        {
            "magFilter" : 9729,
            "minFilter" : 9987
        }
    ],
    "buffers" : [
        {
            "byteLength" : 27792,
            "uri" : "data:application/octet-stream;base64,"
        }
    ]
}
