{
    "asset" : {
        "generator" : "Khronos glTF Blender I/O v1.7.33",
        "version" : "2.0"
    },
    "scene" : 0,
    "scenes" : [
        {
            "name" : "Scene",
            "nodes" : [
                0
            ]
        }
    ],
    "nodes" : [
        {
            "mesh" : 0,
            "name" : "Tree-Octopus-no1"
        }
    ],
    "materials" : [
        {
            "doubleSided" : true,
            "name" : "color-palette.001",
            "pbrMetallicRoughness" : {
                "baseColorTexture" : {
                    "index" : 0
                },
                "metallicFactor" : 0,
                "roughnessFactor" : 0.5
            }
        }
    ],
    "meshes" : [
        {
            "name" : "Cube.042",
            "primitives" : [
                {
                    "attributes" : {
                        "POSITION" : 0,
                        "NORMAL" : 1,
                        "TEXCOORD_0" : 2
                    },
                    "indices" : 3,
                    "material" : 0
                }
            ]
        }
    ],
    "textures" : [
        {
            "sampler" : 0,
            "source" : 0
        }
    ],
    "images" : [
        {
            "bufferView" : 4,
            "mimeType" : "image/png",
            "name" : "LowPoly_paletta"
        }
    ],
    "accessors" : [
        {
            "bufferView" : 0,
            "componentType" : 5126,
            "count" : 2327,
            "max" : [
                0.6730039715766907,
                1.0288825035095215,
                1.02603280544281
            ],
            "min" : [
                -1.4052234888076782,
                -0.09397295117378235,
                -0.6639466881752014
            ],
            "type" : "VEC3"
        },
        {
            "bufferView" : 1,
            "componentType" : 5126,
            "count" : 2327,
            "type" : "VEC3"
        },
        {
            "bufferView" : 2,
            "componentType" : 5126,
            "count" : 2327,
            "type" : "VEC2"
        },
        {
            "bufferView" : 3,
            "componentType" : 5123,
            "count" : 8148,
            "type" : "SCALAR"
        }
    ],
    "bufferViews" : [
        {
            "buffer" : 0,
            "byteLength" : 27924,
            "byteOffset" : 0
        },
        {
            "buffer" : 0,
            "byteLength" : 27924,
            "byteOffset" : 27924
        },
        {
            "buffer" : 0,
            "byteLength" : 18616,
            "byteOffset" : 55848
        },
        {
            "buffer" : 0,
            "byteLength" : 16296,
            "byteOffset" : 74464
        },
        {
            "buffer" : 0,
            "byteLength" : 499,
            "byteOffset" : 90760
        }
    ],
    "samplers" : [
        {
            "magFilter" : 9729,
            "minFilter" : 9987
        }
    ],
    "buffers" : [
        {
            "byteLength" : 91260,
            "uri" : "data:application/octet-stream;base64,"
        }
    ]
}
