{
    "asset" : {
        "generator" : "Khronos glTF Blender I/O v1.7.33",
        "version" : "2.0"
    },
    "scene" : 0,
    "scenes" : [
        {
            "name" : "Scene",
            "nodes" : [
                0
            ]
        }
    ],
    "nodes" : [
        {
            "mesh" : 0,
            "name" : "Tree-Alpaca-no1"
        }
    ],
    "materials" : [
        {
            "doubleSided" : true,
            "name" : "color-palette",
            "pbrMetallicRoughness" : {
                "baseColorTexture" : {
                    "index" : 0
                },
                "metallicFactor" : 0,
                "roughnessFactor" : 0.5
            }
        }
    ],
    "meshes" : [
        {
            "name" : "Cube.049",
            "primitives" : [
                {
                    "attributes" : {
                        "POSITION" : 0,
                        "NORMAL" : 1,
                        "TEXCOORD_0" : 2
                    },
                    "indices" : 3,
                    "material" : 0
                }
            ]
        }
    ],
    "textures" : [
        {
            "sampler" : 0,
            "source" : 0
        }
    ],
    "images" : [
        {
            "bufferView" : 4,
            "mimeType" : "image/png",
            "name" : "LowPoly_paletta"
        }
    ],
    "accessors" : [
        {
            "bufferView" : 0,
            "componentType" : 5126,
            "count" : 2786,
            "max" : [
                0.9712318181991577,
                2.438101291656494,
                1.5987976789474487
            ],
            "min" : [
                -0.9178823828697205,
                -0.04246043041348457,
                -1.1743383407592773
            ],
            "type" : "VEC3"
        },
        {
            "bufferView" : 1,
            "componentType" : 5126,
            "count" : 2786,
            "type" : "VEC3"
        },
        {
            "bufferView" : 2,
            "componentType" : 5126,
            "count" : 2786,
            "type" : "VEC2"
        },
        {
            "bufferView" : 3,
            "componentType" : 5123,
            "count" : 14844,
            "type" : "SCALAR"
        }
    ],
    "bufferViews" : [
        {
            "buffer" : 0,
            "byteLength" : 33432,
            "byteOffset" : 0
        },
        {
            "buffer" : 0,
            "byteLength" : 33432,
            "byteOffset" : 33432
        },
        {
            "buffer" : 0,
            "byteLength" : 22288,
            "byteOffset" : 66864
        },
        {
            "buffer" : 0,
            "byteLength" : 29688,
            "byteOffset" : 89152
        },
        {
            "buffer" : 0,
            "byteLength" : 499,
            "byteOffset" : 118840
        }
    ],
    "samplers" : [
        {
            "magFilter" : 9729,
            "minFilter" : 9987
        }
    ],
    "buffers" : [
        {
            "byteLength" : 119340,
            "uri" : "data:application/octet-stream;base64,"
        }
    ]
}
