{
    "asset" : {
        "generator" : "Khronos glTF Blender I/O v1.7.33",
        "version" : "2.0"
    },
    "scene" : 0,
    "scenes" : [
        {
            "name" : "Scene",
            "nodes" : [
                0
            ]
        }
    ],
    "nodes" : [
        {
            "mesh" : 0,
            "name" : "Tree-Octopus-no1"
        }
    ],
    "materials" : [
        {
            "doubleSided" : true,
            "name" : "color-palette.001",
            "pbrMetallicRoughness" : {
                "baseColorTexture" : {
                    "index" : 0
                },
                "metallicFactor" : 0,
                "roughnessFactor" : 0.5
            }
        }
    ],
    "meshes" : [
        {
            "name" : "Cube.042",
            "primitives" : [
                {
                    "attributes" : {
                        "POSITION" : 0,
                        "NORMAL" : 1,
                        "TEXCOORD_0" : 2
                    },
                    "indices" : 3,
                    "material" : 0
                }
            ]
        }
    ],
    "textures" : [
        {
            "sampler" : 0,
            "source" : 0
        }
    ],
    "images" : [
        {
            "bufferView" : 4,
            "mimeType" : "image/png",
            "name" : "LowPoly_paletta"
        }
    ],
    "accessors" : [
        {
            "bufferView" : 0,
            "componentType" : 5126,
            "count" : 5188,
            "max" : [
                1.3874045610427856,
                1.7434687614440918,
                1.3664209842681885
            ],
            "min" : [
                -1.4870973825454712,
                -0.08168095350265503,
                -1.422945499420166
            ],
            "type" : "VEC3"
        },
        {
            "bufferView" : 1,
            "componentType" : 5126,
            "count" : 5188,
            "type" : "VEC3"
        },
        {
            "bufferView" : 2,
            "componentType" : 5126,
            "count" : 5188,
            "type" : "VEC2"
        },
        {
            "bufferView" : 3,
            "componentType" : 5123,
            "count" : 19380,
            "type" : "SCALAR"
        }
    ],
    "bufferViews" : [
        {
            "buffer" : 0,
            "byteLength" : 62256,
            "byteOffset" : 0
        },
        {
            "buffer" : 0,
            "byteLength" : 62256,
            "byteOffset" : 62256
        },
        {
            "buffer" : 0,
            "byteLength" : 41504,
            "byteOffset" : 124512
        },
        {
            "buffer" : 0,
            "byteLength" : 38760,
            "byteOffset" : 166016
        },
        {
            "buffer" : 0,
            "byteLength" : 499,
            "byteOffset" : 204776
        }
    ],
    "samplers" : [
        {
            "magFilter" : 9729,
            "minFilter" : 9987
        }
    ],
    "buffers" : [
        {
            "byteLength" : 205276,
            "uri" : "data:application/octet-stream;base64,"
        }
    ]
}
