{
    "asset" : {
        "generator" : "Khronos glTF Blender I/O v1.7.33",
        "version" : "2.0"
    },
    "scene" : 0,
    "scenes" : [
        {
            "name" : "Scene",
            "nodes" : [
                0
            ]
        }
    ],
    "nodes" : [
        {
            "mesh" : 0,
            "name" : "Tree-Eggplant-No1"
        }
    ],
    "materials" : [
        {
            "doubleSided" : true,
            "name" : "color-palette",
            "pbrMetallicRoughness" : {
                "baseColorTexture" : {
                    "index" : 0
                },
                "metallicFactor" : 0,
                "roughnessFactor" : 0.5
            }
        }
    ],
    "meshes" : [
        {
            "name" : "Cube.001",
            "primitives" : [
                {
                    "attributes" : {
                        "POSITION" : 0,
                        "NORMAL" : 1,
                        "TEXCOORD_0" : 2
                    },
                    "indices" : 3,
                    "material" : 0
                }
            ]
        }
    ],
    "textures" : [
        {
            "sampler" : 0,
            "source" : 0
        }
    ],
    "images" : [
        {
            "bufferView" : 4,
            "mimeType" : "image/png",
            "name" : "LowPoly_paletta"
        }
    ],
    "accessors" : [
        {
            "bufferView" : 0,
            "componentType" : 5126,
            "count" : 1574,
            "max" : [
                0.7881331443786621,
                3.3714797496795654,
                0.5265011191368103
            ],
            "min" : [
                -1.063483476638794,
                -0.011633910238742828,
                -1.6560511589050293
            ],
            "type" : "VEC3"
        },
        {
            "bufferView" : 1,
            "componentType" : 5126,
            "count" : 1574,
            "type" : "VEC3"
        },
        {
            "bufferView" : 2,
            "componentType" : 5126,
            "count" : 1574,
            "type" : "VEC2"
        },
        {
            "bufferView" : 3,
            "componentType" : 5123,
            "count" : 7800,
            "type" : "SCALAR"
        }
    ],
    "bufferViews" : [
        {
            "buffer" : 0,
            "byteLength" : 18888,
            "byteOffset" : 0
        },
        {
            "buffer" : 0,
            "byteLength" : 18888,
            "byteOffset" : 18888
        },
        {
            "buffer" : 0,
            "byteLength" : 12592,
            "byteOffset" : 37776
        },
        {
            "buffer" : 0,
            "byteLength" : 15600,
            "byteOffset" : 50368
        },
        {
            "buffer" : 0,
            "byteLength" : 499,
            "byteOffset" : 65968
        }
    ],
    "samplers" : [
        {
            "magFilter" : 9729,
            "minFilter" : 9987
        }
    ],
    "buffers" : [
        {
            "byteLength" : 66468,
            "uri" : "data:application/octet-stream;base64,"
        }
    ]
}
